<svg xmlns="http://www.w3.org/2000/svg" width="240" height="736">
  <style>
    line, path, circle, rect, polygon{stroke:black;stroke-width:2;stroke-opacity:1;fill-opacity:1;stroke-linecap:round;stroke-linejoin:miter;}text{font-family:Iosevka Fixed, monospace;font-size:14px;}rect.backdrop{stroke:none;fill:white;}.broken{stroke-dasharray:8;}.filled{fill:black;}.bg_filled{fill:white;}.nofill{fill:white;}.end_marked_arrow{marker-end:url(#arrow);}.start_marked_arrow{marker-start:url(#arrow);}.end_marked_diamond{marker-end:url(#diamond);}.start_marked_diamond{marker-start:url(#diamond);}.end_marked_circle{marker-end:url(#circle);}.start_marked_circle{marker-start:url(#circle);}.end_marked_open_circle{marker-end:url(#open_circle);}.start_marked_open_circle{marker-start:url(#open_circle);}.end_marked_big_open_circle{marker-end:url(#big_open_circle);}.start_marked_big_open_circle{marker-start:url(#big_open_circle);}
    <!--separator-->

  </style>
  <defs>
    <marker id="arrow" viewBox="-2 -2 8 8" refX="4" refY="2" markerWidth="7" markerHeight="7" orient="auto-start-reverse">
      <polygon points="0,0 0,4 4,2 0,0"></polygon>
    </marker>
    <marker id="diamond" viewBox="-2 -2 8 8" refX="4" refY="2" markerWidth="7" markerHeight="7" orient="auto-start-reverse">
      <polygon points="0,2 2,0 4,2 2,4 0,2"></polygon>
    </marker>
    <marker id="circle" viewBox="0 0 8 8" refX="4" refY="4" markerWidth="7" markerHeight="7" orient="auto-start-reverse">
      <circle cx="4" cy="4" r="2" class="filled"></circle>
    </marker>
    <marker id="open_circle" viewBox="0 0 8 8" refX="4" refY="4" markerWidth="7" markerHeight="7" orient="auto-start-reverse">
      <circle cx="4" cy="4" r="2" class="bg_filled"></circle>
    </marker>
    <marker id="big_open_circle" viewBox="0 0 8 8" refX="4" refY="4" markerWidth="7" markerHeight="7" orient="auto-start-reverse">
      <circle cx="4" cy="4" r="3" class="bg_filled"></circle>
    </marker>
  </defs>
  <rect class="backdrop" x="0" y="0" width="240" height="736"></rect>
  <text x="2" y="12" >0</text>
  <text x="162" y="28" >100</text>
  <text x="162" y="124" >50</text>
  <text x="162" y="220" >25</text>
  <text x="130" y="316" >13</text>
  <text x="202" y="316" >12</text>
  <text x="106" y="412" >7</text>
  <text x="178" y="412" >6</text>
  <text x="66" y="508" >4</text>
  <text x="146" y="508" >3</text>
  <text x="114" y="604" >2</text>
  <text x="186" y="604" >1</text>
  <text x="146" y="700" >1</text>
  <text x="2" y="124" >1</text>
  <text x="2" y="220" >2</text>
  <text x="2" y="316" >3</text>
  <text x="2" y="412" >4</text>
  <text x="2" y="508" >5</text>
  <text x="2" y="604" >6</text>
  <text x="2" y="700" >7</text>
  <g>
    <path d="M 168,8 A 8,8 0,0,0 162,12" class="nofill"></path>
    <line x1="162" y1="12" x2="160" y2="16" class="solid"></line>
    <line x1="168" y1="8" x2="176" y2="8" class="solid"></line>
    <path d="M 176,8 A 8,8 0,0,1 182,12" class="nofill"></path>
    <line x1="182" y1="12" x2="184" y2="16" class="solid"></line>
    <path d="M 160,16 A 16,16 0,0,0 160,32" class="nofill"></path>
    <path d="M 184,16 A 16,16 0,0,1 184,32" class="nofill"></path>
    <line x1="160" y1="32" x2="162" y2="36" class="solid"></line>
    <path d="M 162,36 A 8,8 0,0,0 168,40" class="nofill"></path>
    <line x1="168" y1="40" x2="176" y2="40" class="solid"></line>
    <line x1="184" y1="32" x2="182" y2="36" class="solid"></line>
    <path d="M 182,36 A 8,8 0,0,1 176,40" class="nofill"></path>
  </g>
  <g>
    <line x1="172" y1="48" x2="172" y2="84" class="solid"></line>
    <polygon points="168,84 176,84 172,96" class="filled"></polygon>
  </g>
  <g>
    <path d="M 168,104 A 8,8 0,0,0 162,108" class="nofill"></path>
    <line x1="162" y1="108" x2="160" y2="112" class="solid"></line>
    <line x1="168" y1="104" x2="176" y2="104" class="solid"></line>
    <path d="M 176,104 A 8,8 0,0,1 182,108" class="nofill"></path>
    <line x1="182" y1="108" x2="184" y2="112" class="solid"></line>
    <path d="M 160,112 A 16,16 0,0,0 160,128" class="nofill"></path>
    <path d="M 184,112 A 16,16 0,0,1 184,128" class="nofill"></path>
    <line x1="160" y1="128" x2="162" y2="132" class="solid"></line>
    <path d="M 162,132 A 8,8 0,0,0 168,136" class="nofill"></path>
    <line x1="168" y1="136" x2="176" y2="136" class="solid"></line>
    <line x1="184" y1="128" x2="182" y2="132" class="solid"></line>
    <path d="M 182,132 A 8,8 0,0,1 176,136" class="nofill"></path>
  </g>
  <g>
    <line x1="172" y1="144" x2="172" y2="180" class="solid"></line>
    <polygon points="168,180 176,180 172,192" class="filled"></polygon>
  </g>
  <g>
    <path d="M 168,200 A 8,8 0,0,0 162,204" class="nofill"></path>
    <line x1="162" y1="204" x2="160" y2="208" class="solid"></line>
    <line x1="168" y1="200" x2="176" y2="200" class="solid"></line>
    <path d="M 176,200 A 8,8 0,0,1 182,204" class="nofill"></path>
    <line x1="182" y1="204" x2="184" y2="208" class="solid"></line>
    <path d="M 160,208 A 16,16 0,0,0 160,224" class="nofill"></path>
    <path d="M 184,208 A 16,16 0,0,1 184,224" class="nofill"></path>
    <line x1="160" y1="224" x2="162" y2="228" class="solid"></line>
    <path d="M 162,228 A 8,8 0,0,0 168,232" class="nofill"></path>
    <line x1="168" y1="232" x2="176" y2="232" class="solid"></line>
    <line x1="184" y1="224" x2="182" y2="228" class="solid"></line>
    <path d="M 182,228 A 8,8 0,0,1 176,232" class="nofill"></path>
  </g>
  <g>
    <line x1="168" y1="240" x2="150" y2="276" class="solid"></line>
    <polygon points="153,276 146,284 146,273" class="filled"></polygon>
  </g>
  <g>
    <line x1="184" y1="240" x2="202" y2="276" class="solid"></line>
    <polygon points="199,276 206,284 206,273" class="filled"></polygon>
  </g>
  <g>
    <path d="M 136,296 A 8,8 0,0,0 130,300" class="nofill"></path>
    <line x1="130" y1="300" x2="128" y2="304" class="solid"></line>
    <line x1="136" y1="296" x2="144" y2="296" class="solid"></line>
    <path d="M 144,296 A 8,8 0,0,1 150,300" class="nofill"></path>
    <line x1="150" y1="300" x2="152" y2="304" class="solid"></line>
    <path d="M 128,304 A 16,16 0,0,0 128,320" class="nofill"></path>
    <path d="M 152,304 A 16,16 0,0,1 152,320" class="nofill"></path>
    <line x1="128" y1="320" x2="130" y2="324" class="solid"></line>
    <path d="M 130,324 A 8,8 0,0,0 136,328" class="nofill"></path>
    <line x1="136" y1="328" x2="144" y2="328" class="solid"></line>
    <line x1="152" y1="320" x2="150" y2="324" class="solid"></line>
    <path d="M 150,324 A 8,8 0,0,1 144,328" class="nofill"></path>
  </g>
  <g>
    <path d="M 208,296 A 8,8 0,0,0 202,300" class="nofill"></path>
    <line x1="202" y1="300" x2="200" y2="304" class="solid"></line>
    <line x1="208" y1="296" x2="216" y2="296" class="solid"></line>
    <path d="M 216,296 A 8,8 0,0,1 222,300" class="nofill"></path>
    <line x1="222" y1="300" x2="224" y2="304" class="solid"></line>
    <path d="M 200,304 A 16,16 0,0,0 200,320" class="nofill"></path>
    <path d="M 224,304 A 16,16 0,0,1 224,320" class="nofill"></path>
    <line x1="200" y1="320" x2="202" y2="324" class="solid"></line>
    <path d="M 202,324 A 8,8 0,0,0 208,328" class="nofill"></path>
    <line x1="208" y1="328" x2="216" y2="328" class="solid"></line>
    <line x1="224" y1="320" x2="222" y2="324" class="solid"></line>
    <path d="M 222,324 A 8,8 0,0,1 216,328" class="nofill"></path>
  </g>
  <g>
    <line x1="136" y1="336" x2="118" y2="372" class="solid"></line>
    <polygon points="121,372 114,380 114,369" class="filled"></polygon>
  </g>
  <g>
    <line x1="152" y1="336" x2="170" y2="372" class="solid"></line>
    <polygon points="167,372 174,380 174,369" class="filled"></polygon>
  </g>
  <g>
    <line x1="208" y1="336" x2="190" y2="372" class="solid"></line>
    <polygon points="193,372 186,380 186,369" class="filled"></polygon>
  </g>
  <g>
    <path d="M 104,392 A 8,8 0,0,0 98,396" class="nofill"></path>
    <line x1="98" y1="396" x2="96" y2="400" class="solid"></line>
    <line x1="104" y1="392" x2="112" y2="392" class="solid"></line>
    <path d="M 112,392 A 8,8 0,0,1 118,396" class="nofill"></path>
    <line x1="118" y1="396" x2="120" y2="400" class="solid"></line>
    <path d="M 96,400 A 16,16 0,0,0 96,416" class="nofill"></path>
    <path d="M 120,400 A 16,16 0,0,1 120,416" class="nofill"></path>
    <line x1="96" y1="416" x2="98" y2="420" class="solid"></line>
    <path d="M 98,420 A 8,8 0,0,0 104,424" class="nofill"></path>
    <line x1="104" y1="424" x2="112" y2="424" class="solid"></line>
    <line x1="120" y1="416" x2="118" y2="420" class="solid"></line>
    <path d="M 118,420 A 8,8 0,0,1 112,424" class="nofill"></path>
  </g>
  <g>
    <path d="M 176,392 A 8,8 0,0,0 170,396" class="nofill"></path>
    <line x1="170" y1="396" x2="168" y2="400" class="solid"></line>
    <line x1="176" y1="392" x2="184" y2="392" class="solid"></line>
    <path d="M 184,392 A 8,8 0,0,1 190,396" class="nofill"></path>
    <line x1="190" y1="396" x2="192" y2="400" class="solid"></line>
    <path d="M 168,400 A 16,16 0,0,0 168,416" class="nofill"></path>
    <path d="M 192,400 A 16,16 0,0,1 192,416" class="nofill"></path>
    <line x1="168" y1="416" x2="170" y2="420" class="solid"></line>
    <path d="M 170,420 A 8,8 0,0,0 176,424" class="nofill"></path>
    <line x1="176" y1="424" x2="184" y2="424" class="solid"></line>
    <line x1="192" y1="416" x2="190" y2="420" class="solid"></line>
    <path d="M 190,420 A 8,8 0,0,1 184,424" class="nofill"></path>
  </g>
  <g>
    <line x1="96" y1="432" x2="78" y2="468" class="solid"></line>
    <polygon points="81,468 74,476 74,465" class="filled"></polygon>
  </g>
  <g>
    <line x1="120" y1="432" x2="138" y2="468" class="solid"></line>
    <polygon points="135,468 142,476 142,465" class="filled"></polygon>
  </g>
  <g>
    <line x1="176" y1="432" x2="158" y2="468" class="solid"></line>
    <polygon points="161,468 154,476 154,465" class="filled"></polygon>
  </g>
  <g>
    <path d="M 64,488 A 8,8 0,0,0 58,492" class="nofill"></path>
    <line x1="58" y1="492" x2="56" y2="496" class="solid"></line>
    <line x1="64" y1="488" x2="72" y2="488" class="solid"></line>
    <path d="M 72,488 A 8,8 0,0,1 78,492" class="nofill"></path>
    <line x1="78" y1="492" x2="80" y2="496" class="solid"></line>
    <path d="M 56,496 A 16,16 0,0,0 56,512" class="nofill"></path>
    <path d="M 80,496 A 16,16 0,0,1 80,512" class="nofill"></path>
    <line x1="56" y1="512" x2="58" y2="516" class="solid"></line>
    <path d="M 58,516 A 8,8 0,0,0 64,520" class="nofill"></path>
    <line x1="64" y1="520" x2="72" y2="520" class="solid"></line>
    <line x1="80" y1="512" x2="78" y2="516" class="solid"></line>
    <path d="M 78,516 A 8,8 0,0,1 72,520" class="nofill"></path>
  </g>
  <g>
    <path d="M 144,488 A 8,8 0,0,0 138,492" class="nofill"></path>
    <line x1="138" y1="492" x2="136" y2="496" class="solid"></line>
    <line x1="144" y1="488" x2="152" y2="488" class="solid"></line>
    <path d="M 152,488 A 8,8 0,0,1 158,492" class="nofill"></path>
    <line x1="158" y1="492" x2="160" y2="496" class="solid"></line>
    <path d="M 136,496 A 16,16 0,0,0 136,512" class="nofill"></path>
    <path d="M 160,496 A 16,16 0,0,1 160,512" class="nofill"></path>
    <line x1="136" y1="512" x2="138" y2="516" class="solid"></line>
    <path d="M 138,516 A 8,8 0,0,0 144,520" class="nofill"></path>
    <line x1="144" y1="520" x2="152" y2="520" class="solid"></line>
    <line x1="160" y1="512" x2="158" y2="516" class="solid"></line>
    <path d="M 158,516 A 8,8 0,0,1 152,520" class="nofill"></path>
  </g>
  <g>
    <line x1="80" y1="528" x2="98" y2="564" class="solid"></line>
    <polygon points="95,564 102,572 102,561" class="filled"></polygon>
  </g>
  <g>
    <line x1="144" y1="528" x2="126" y2="564" class="solid"></line>
    <polygon points="129,564 122,572 122,561" class="filled"></polygon>
  </g>
  <g>
    <line x1="160" y1="528" x2="178" y2="564" class="solid"></line>
    <polygon points="175,564 182,572 182,561" class="filled"></polygon>
  </g>
  <g>
    <path d="M 112,584 A 8,8 0,0,0 106,588" class="nofill"></path>
    <line x1="106" y1="588" x2="104" y2="592" class="solid"></line>
    <line x1="112" y1="584" x2="120" y2="584" class="solid"></line>
    <path d="M 120,584 A 8,8 0,0,1 126,588" class="nofill"></path>
    <line x1="126" y1="588" x2="128" y2="592" class="solid"></line>
    <path d="M 104,592 A 16,16 0,0,0 104,608" class="nofill"></path>
    <path d="M 128,592 A 16,16 0,0,1 128,608" class="nofill"></path>
    <line x1="104" y1="608" x2="106" y2="612" class="solid"></line>
    <path d="M 106,612 A 8,8 0,0,0 112,616" class="nofill"></path>
    <line x1="112" y1="616" x2="120" y2="616" class="solid"></line>
    <line x1="128" y1="608" x2="126" y2="612" class="solid"></line>
    <path d="M 126,612 A 8,8 0,0,1 120,616" class="nofill"></path>
  </g>
  <g>
    <path d="M 184,584 A 8,8 0,0,0 178,588" class="nofill"></path>
    <line x1="178" y1="588" x2="176" y2="592" class="solid"></line>
    <line x1="184" y1="584" x2="192" y2="584" class="solid"></line>
    <path d="M 192,584 A 8,8 0,0,1 198,588" class="nofill"></path>
    <line x1="198" y1="588" x2="200" y2="592" class="solid"></line>
    <path d="M 176,592 A 16,16 0,0,0 176,608" class="nofill"></path>
    <path d="M 200,592 A 16,16 0,0,1 200,608" class="nofill"></path>
    <line x1="176" y1="608" x2="178" y2="612" class="solid"></line>
    <path d="M 178,612 A 8,8 0,0,0 184,616" class="nofill"></path>
    <line x1="184" y1="616" x2="192" y2="616" class="solid"></line>
    <line x1="200" y1="608" x2="198" y2="612" class="solid"></line>
    <path d="M 198,612 A 8,8 0,0,1 192,616" class="nofill"></path>
  </g>
  <g>
    <line x1="120" y1="624" x2="138" y2="660" class="solid"></line>
    <polygon points="135,660 142,668 142,657" class="filled"></polygon>
  </g>
  <g>
    <path d="M 144,680 A 8,8 0,0,0 138,684" class="nofill"></path>
    <line x1="138" y1="684" x2="136" y2="688" class="solid"></line>
    <line x1="144" y1="680" x2="152" y2="680" class="solid"></line>
    <path d="M 152,680 A 8,8 0,0,1 158,684" class="nofill"></path>
    <line x1="158" y1="684" x2="160" y2="688" class="solid"></line>
    <path d="M 136,688 A 16,16 0,0,0 136,704" class="nofill"></path>
    <path d="M 160,688 A 16,16 0,0,1 160,704" class="nofill"></path>
    <line x1="136" y1="704" x2="138" y2="708" class="solid"></line>
    <path d="M 138,708 A 8,8 0,0,0 144,712" class="nofill"></path>
    <line x1="144" y1="712" x2="152" y2="712" class="solid"></line>
    <line x1="160" y1="704" x2="158" y2="708" class="solid"></line>
    <path d="M 158,708 A 8,8 0,0,1 152,712" class="nofill"></path>
  </g>
</svg>
