<?xml version="1.0" encoding="utf-8"?>
<svg xmlns="http://www.w3.org/2000/svg" xmlns:xlink="http://www.w3.org/1999/xlink" width="672" height="480" viewBox="0 0 2688 1920">
<defs>
  <clipPath id="clip900">
    <rect x="0" y="0" width="2688" height="1920"/>
  </clipPath>
</defs>
<path clip-path="url(#clip900)" d="M0 1920 L2688 1920 L2688 0 L0 0  Z" fill="#ffffff" fill-rule="evenodd" fill-opacity="1"/>
<defs>
  <clipPath id="clip901">
    <rect x="537" y="0" width="1883" height="1883"/>
  </clipPath>
</defs>
<path clip-path="url(#clip900)" d="M196.816 1800.78 L2640.76 1800.78 L2640.76 47.2441 L196.816 47.2441  Z" fill="#ffffff" fill-rule="evenodd" fill-opacity="1"/>
<defs>
  <clipPath id="clip902">
    <rect x="196" y="47" width="2445" height="1755"/>
  </clipPath>
</defs>
<polyline clip-path="url(#clip902)" style="stroke:#000000; stroke-linecap:round; stroke-linejoin:round; stroke-width:2; stroke-opacity:0.1; fill:none" points="265.948,1800.78 265.948,47.2441 "/>
<polyline clip-path="url(#clip902)" style="stroke:#000000; stroke-linecap:round; stroke-linejoin:round; stroke-width:2; stroke-opacity:0.1; fill:none" points="842.367,1800.78 842.367,47.2441 "/>
<polyline clip-path="url(#clip902)" style="stroke:#000000; stroke-linecap:round; stroke-linejoin:round; stroke-width:2; stroke-opacity:0.1; fill:none" points="1418.79,1800.78 1418.79,47.2441 "/>
<polyline clip-path="url(#clip902)" style="stroke:#000000; stroke-linecap:round; stroke-linejoin:round; stroke-width:2; stroke-opacity:0.1; fill:none" points="1995.2,1800.78 1995.2,47.2441 "/>
<polyline clip-path="url(#clip902)" style="stroke:#000000; stroke-linecap:round; stroke-linejoin:round; stroke-width:2; stroke-opacity:0.1; fill:none" points="2571.62,1800.78 2571.62,47.2441 "/>
<polyline clip-path="url(#clip900)" style="stroke:#000000; stroke-linecap:round; stroke-linejoin:round; stroke-width:4; stroke-opacity:1; fill:none" points="196.816,1800.78 2640.76,1800.78 "/>
<polyline clip-path="url(#clip900)" style="stroke:#000000; stroke-linecap:round; stroke-linejoin:round; stroke-width:4; stroke-opacity:1; fill:none" points="265.948,1800.78 265.948,1781.88 "/>
<polyline clip-path="url(#clip900)" style="stroke:#000000; stroke-linecap:round; stroke-linejoin:round; stroke-width:4; stroke-opacity:1; fill:none" points="842.367,1800.78 842.367,1781.88 "/>
<polyline clip-path="url(#clip900)" style="stroke:#000000; stroke-linecap:round; stroke-linejoin:round; stroke-width:4; stroke-opacity:1; fill:none" points="1418.79,1800.78 1418.79,1781.88 "/>
<polyline clip-path="url(#clip900)" style="stroke:#000000; stroke-linecap:round; stroke-linejoin:round; stroke-width:4; stroke-opacity:1; fill:none" points="1995.2,1800.78 1995.2,1781.88 "/>
<polyline clip-path="url(#clip900)" style="stroke:#000000; stroke-linecap:round; stroke-linejoin:round; stroke-width:4; stroke-opacity:1; fill:none" points="2571.62,1800.78 2571.62,1781.88 "/>
<path clip-path="url(#clip900)" d="M212.476 1848.65 L242.152 1848.65 L242.152 1852.59 L212.476 1852.59 L212.476 1848.65 Z" fill="#000000" fill-rule="evenodd" fill-opacity="1" /><path clip-path="url(#clip900)" d="M253.055 1861.55 L260.694 1861.55 L260.694 1835.18 L252.383 1836.85 L252.383 1832.59 L260.647 1830.92 L265.323 1830.92 L265.323 1861.55 L272.962 1861.55 L272.962 1865.48 L253.055 1865.48 L253.055 1861.55 Z" fill="#000000" fill-rule="evenodd" fill-opacity="1" /><path clip-path="url(#clip900)" d="M282.406 1859.6 L287.291 1859.6 L287.291 1865.48 L282.406 1865.48 L282.406 1859.6 Z" fill="#000000" fill-rule="evenodd" fill-opacity="1" /><path clip-path="url(#clip900)" d="M307.476 1834 Q303.865 1834 302.036 1837.57 Q300.23 1841.11 300.23 1848.24 Q300.23 1855.34 302.036 1858.91 Q303.865 1862.45 307.476 1862.45 Q311.11 1862.45 312.916 1858.91 Q314.744 1855.34 314.744 1848.24 Q314.744 1841.11 312.916 1837.57 Q311.11 1834 307.476 1834 M307.476 1830.3 Q313.286 1830.3 316.341 1834.9 Q319.42 1839.49 319.42 1848.24 Q319.42 1856.96 316.341 1861.57 Q313.286 1866.15 307.476 1866.15 Q301.666 1866.15 298.587 1861.57 Q295.531 1856.96 295.531 1848.24 Q295.531 1839.49 298.587 1834.9 Q301.666 1830.3 307.476 1830.3 Z" fill="#000000" fill-rule="evenodd" fill-opacity="1" /><path clip-path="url(#clip900)" d="M789.393 1848.65 L819.069 1848.65 L819.069 1852.59 L789.393 1852.59 L789.393 1848.65 Z" fill="#000000" fill-rule="evenodd" fill-opacity="1" /><path clip-path="url(#clip900)" d="M839.161 1834 Q835.55 1834 833.721 1837.57 Q831.916 1841.11 831.916 1848.24 Q831.916 1855.34 833.721 1858.91 Q835.55 1862.45 839.161 1862.45 Q842.795 1862.45 844.601 1858.91 Q846.43 1855.34 846.43 1848.24 Q846.43 1841.11 844.601 1837.57 Q842.795 1834 839.161 1834 M839.161 1830.3 Q844.971 1830.3 848.027 1834.9 Q851.105 1839.49 851.105 1848.24 Q851.105 1856.96 848.027 1861.57 Q844.971 1866.15 839.161 1866.15 Q833.351 1866.15 830.272 1861.57 Q827.217 1856.96 827.217 1848.24 Q827.217 1839.49 830.272 1834.9 Q833.351 1830.3 839.161 1830.3 Z" fill="#000000" fill-rule="evenodd" fill-opacity="1" /><path clip-path="url(#clip900)" d="M859.323 1859.6 L864.207 1859.6 L864.207 1865.48 L859.323 1865.48 L859.323 1859.6 Z" fill="#000000" fill-rule="evenodd" fill-opacity="1" /><path clip-path="url(#clip900)" d="M874.439 1830.92 L892.795 1830.92 L892.795 1834.86 L878.721 1834.86 L878.721 1843.33 Q879.74 1842.98 880.758 1842.82 Q881.777 1842.64 882.795 1842.64 Q888.582 1842.64 891.962 1845.81 Q895.341 1848.98 895.341 1854.4 Q895.341 1859.97 891.869 1863.08 Q888.397 1866.15 882.078 1866.15 Q879.902 1866.15 877.633 1865.78 Q875.388 1865.41 872.98 1864.67 L872.98 1859.97 Q875.064 1861.11 877.286 1861.66 Q879.508 1862.22 881.985 1862.22 Q885.99 1862.22 888.327 1860.11 Q890.665 1858.01 890.665 1854.4 Q890.665 1850.78 888.327 1848.68 Q885.99 1846.57 881.985 1846.57 Q880.11 1846.57 878.235 1846.99 Q876.383 1847.4 874.439 1848.28 L874.439 1830.92 Z" fill="#000000" fill-rule="evenodd" fill-opacity="1" /><path clip-path="url(#clip900)" d="M1396.17 1834 Q1392.56 1834 1390.73 1837.57 Q1388.93 1841.11 1388.93 1848.24 Q1388.93 1855.34 1390.73 1858.91 Q1392.56 1862.45 1396.17 1862.45 Q1399.8 1862.45 1401.61 1858.91 Q1403.44 1855.34 1403.44 1848.24 Q1403.44 1841.11 1401.61 1837.57 Q1399.8 1834 1396.17 1834 M1396.17 1830.3 Q1401.98 1830.3 1405.04 1834.9 Q1408.11 1839.49 1408.11 1848.24 Q1408.11 1856.96 1405.04 1861.57 Q1401.98 1866.15 1396.17 1866.15 Q1390.36 1866.15 1387.28 1861.57 Q1384.23 1856.96 1384.23 1848.24 Q1384.23 1839.49 1387.28 1834.9 Q1390.36 1830.3 1396.17 1830.3 Z" fill="#000000" fill-rule="evenodd" fill-opacity="1" /><path clip-path="url(#clip900)" d="M1416.33 1859.6 L1421.22 1859.6 L1421.22 1865.48 L1416.33 1865.48 L1416.33 1859.6 Z" fill="#000000" fill-rule="evenodd" fill-opacity="1" /><path clip-path="url(#clip900)" d="M1441.4 1834 Q1437.79 1834 1435.96 1837.57 Q1434.16 1841.11 1434.16 1848.24 Q1434.16 1855.34 1435.96 1858.91 Q1437.79 1862.45 1441.4 1862.45 Q1445.04 1862.45 1446.84 1858.91 Q1448.67 1855.34 1448.67 1848.24 Q1448.67 1841.11 1446.84 1837.57 Q1445.04 1834 1441.4 1834 M1441.4 1830.3 Q1447.21 1830.3 1450.27 1834.9 Q1453.35 1839.49 1453.35 1848.24 Q1453.35 1856.96 1450.27 1861.57 Q1447.21 1866.15 1441.4 1866.15 Q1435.59 1866.15 1432.51 1861.57 Q1429.46 1856.96 1429.46 1848.24 Q1429.46 1839.49 1432.51 1834.9 Q1435.59 1830.3 1441.4 1830.3 Z" fill="#000000" fill-rule="evenodd" fill-opacity="1" /><path clip-path="url(#clip900)" d="M1973.09 1834 Q1969.48 1834 1967.65 1837.57 Q1965.84 1841.11 1965.84 1848.24 Q1965.84 1855.34 1967.65 1858.91 Q1969.48 1862.45 1973.09 1862.45 Q1976.72 1862.45 1978.53 1858.91 Q1980.36 1855.34 1980.36 1848.24 Q1980.36 1841.11 1978.53 1837.57 Q1976.72 1834 1973.09 1834 M1973.09 1830.3 Q1978.9 1830.3 1981.95 1834.9 Q1985.03 1839.49 1985.03 1848.24 Q1985.03 1856.96 1981.95 1861.57 Q1978.9 1866.15 1973.09 1866.15 Q1967.28 1866.15 1964.2 1861.57 Q1961.14 1856.96 1961.14 1848.24 Q1961.14 1839.49 1964.2 1834.9 Q1967.28 1830.3 1973.09 1830.3 Z" fill="#000000" fill-rule="evenodd" fill-opacity="1" /><path clip-path="url(#clip900)" d="M1993.25 1859.6 L1998.13 1859.6 L1998.13 1865.48 L1993.25 1865.48 L1993.25 1859.6 Z" fill="#000000" fill-rule="evenodd" fill-opacity="1" /><path clip-path="url(#clip900)" d="M2008.36 1830.92 L2026.72 1830.92 L2026.72 1834.86 L2012.65 1834.86 L2012.65 1843.33 Q2013.67 1842.98 2014.68 1842.82 Q2015.7 1842.64 2016.72 1842.64 Q2022.51 1842.64 2025.89 1845.81 Q2029.27 1848.98 2029.27 1854.4 Q2029.27 1859.97 2025.79 1863.08 Q2022.32 1866.15 2016 1866.15 Q2013.83 1866.15 2011.56 1865.78 Q2009.31 1865.41 2006.91 1864.67 L2006.91 1859.97 Q2008.99 1861.11 2011.21 1861.66 Q2013.43 1862.22 2015.91 1862.22 Q2019.92 1862.22 2022.25 1860.11 Q2024.59 1858.01 2024.59 1854.4 Q2024.59 1850.78 2022.25 1848.68 Q2019.92 1846.57 2015.91 1846.57 Q2014.04 1846.57 2012.16 1846.99 Q2010.31 1847.4 2008.36 1848.28 L2008.36 1830.92 Z" fill="#000000" fill-rule="evenodd" fill-opacity="1" /><path clip-path="url(#clip900)" d="M2538.78 1861.55 L2546.42 1861.55 L2546.42 1835.18 L2538.11 1836.85 L2538.11 1832.59 L2546.37 1830.92 L2551.05 1830.92 L2551.05 1861.55 L2558.68 1861.55 L2558.68 1865.48 L2538.78 1865.48 L2538.78 1861.55 Z" fill="#000000" fill-rule="evenodd" fill-opacity="1" /><path clip-path="url(#clip900)" d="M2568.13 1859.6 L2573.01 1859.6 L2573.01 1865.48 L2568.13 1865.48 L2568.13 1859.6 Z" fill="#000000" fill-rule="evenodd" fill-opacity="1" /><path clip-path="url(#clip900)" d="M2593.2 1834 Q2589.59 1834 2587.76 1837.57 Q2585.95 1841.11 2585.95 1848.24 Q2585.95 1855.34 2587.76 1858.91 Q2589.59 1862.45 2593.2 1862.45 Q2596.83 1862.45 2598.64 1858.91 Q2600.47 1855.34 2600.47 1848.24 Q2600.47 1841.11 2598.64 1837.57 Q2596.83 1834 2593.2 1834 M2593.2 1830.3 Q2599.01 1830.3 2602.06 1834.9 Q2605.14 1839.49 2605.14 1848.24 Q2605.14 1856.96 2602.06 1861.57 Q2599.01 1866.15 2593.2 1866.15 Q2587.39 1866.15 2584.31 1861.57 Q2581.25 1856.96 2581.25 1848.24 Q2581.25 1839.49 2584.31 1834.9 Q2587.39 1830.3 2593.2 1830.3 Z" fill="#000000" fill-rule="evenodd" fill-opacity="1" /><polyline clip-path="url(#clip902)" style="stroke:#000000; stroke-linecap:round; stroke-linejoin:round; stroke-width:2; stroke-opacity:0.1; fill:none" points="196.816,1751.18 2640.76,1751.18 "/>
<polyline clip-path="url(#clip902)" style="stroke:#000000; stroke-linecap:round; stroke-linejoin:round; stroke-width:2; stroke-opacity:0.1; fill:none" points="196.816,1337.59 2640.76,1337.59 "/>
<polyline clip-path="url(#clip902)" style="stroke:#000000; stroke-linecap:round; stroke-linejoin:round; stroke-width:2; stroke-opacity:0.1; fill:none" points="196.816,924.012 2640.76,924.012 "/>
<polyline clip-path="url(#clip902)" style="stroke:#000000; stroke-linecap:round; stroke-linejoin:round; stroke-width:2; stroke-opacity:0.1; fill:none" points="196.816,510.429 2640.76,510.429 "/>
<polyline clip-path="url(#clip902)" style="stroke:#000000; stroke-linecap:round; stroke-linejoin:round; stroke-width:2; stroke-opacity:0.1; fill:none" points="196.816,96.8467 2640.76,96.8467 "/>
<polyline clip-path="url(#clip900)" style="stroke:#000000; stroke-linecap:round; stroke-linejoin:round; stroke-width:4; stroke-opacity:1; fill:none" points="196.816,1800.78 196.816,47.2441 "/>
<polyline clip-path="url(#clip900)" style="stroke:#000000; stroke-linecap:round; stroke-linejoin:round; stroke-width:4; stroke-opacity:1; fill:none" points="196.816,1751.18 215.714,1751.18 "/>
<polyline clip-path="url(#clip900)" style="stroke:#000000; stroke-linecap:round; stroke-linejoin:round; stroke-width:4; stroke-opacity:1; fill:none" points="196.816,1337.59 215.714,1337.59 "/>
<polyline clip-path="url(#clip900)" style="stroke:#000000; stroke-linecap:round; stroke-linejoin:round; stroke-width:4; stroke-opacity:1; fill:none" points="196.816,924.012 215.714,924.012 "/>
<polyline clip-path="url(#clip900)" style="stroke:#000000; stroke-linecap:round; stroke-linejoin:round; stroke-width:4; stroke-opacity:1; fill:none" points="196.816,510.429 215.714,510.429 "/>
<polyline clip-path="url(#clip900)" style="stroke:#000000; stroke-linecap:round; stroke-linejoin:round; stroke-width:4; stroke-opacity:1; fill:none" points="196.816,96.8467 215.714,96.8467 "/>
<path clip-path="url(#clip900)" d="M49.5521 1751.63 L79.2279 1751.63 L79.2279 1755.56 L49.5521 1755.56 L49.5521 1751.63 Z" fill="#000000" fill-rule="evenodd" fill-opacity="1" /><path clip-path="url(#clip900)" d="M90.1306 1764.52 L97.7695 1764.52 L97.7695 1738.16 L89.4593 1739.82 L89.4593 1735.56 L97.7232 1733.9 L102.399 1733.9 L102.399 1764.52 L110.038 1764.52 L110.038 1768.46 L90.1306 1768.46 L90.1306 1764.52 Z" fill="#000000" fill-rule="evenodd" fill-opacity="1" /><path clip-path="url(#clip900)" d="M119.482 1762.58 L124.367 1762.58 L124.367 1768.46 L119.482 1768.46 L119.482 1762.58 Z" fill="#000000" fill-rule="evenodd" fill-opacity="1" /><path clip-path="url(#clip900)" d="M144.552 1736.98 Q140.941 1736.98 139.112 1740.54 Q137.306 1744.08 137.306 1751.21 Q137.306 1758.32 139.112 1761.88 Q140.941 1765.42 144.552 1765.42 Q148.186 1765.42 149.991 1761.88 Q151.82 1758.32 151.82 1751.21 Q151.82 1744.08 149.991 1740.54 Q148.186 1736.98 144.552 1736.98 M144.552 1733.27 Q150.362 1733.27 153.417 1737.88 Q156.496 1742.46 156.496 1751.21 Q156.496 1759.94 153.417 1764.54 Q150.362 1769.13 144.552 1769.13 Q138.741 1769.13 135.663 1764.54 Q132.607 1759.94 132.607 1751.21 Q132.607 1742.46 135.663 1737.88 Q138.741 1733.27 144.552 1733.27 Z" fill="#000000" fill-rule="evenodd" fill-opacity="1" /><path clip-path="url(#clip900)" d="M50.5475 1338.05 L80.2233 1338.05 L80.2233 1341.98 L50.5475 1341.98 L50.5475 1338.05 Z" fill="#000000" fill-rule="evenodd" fill-opacity="1" /><path clip-path="url(#clip900)" d="M100.316 1323.39 Q96.7047 1323.39 94.876 1326.96 Q93.0704 1330.5 93.0704 1337.63 Q93.0704 1344.74 94.876 1348.3 Q96.7047 1351.84 100.316 1351.84 Q103.95 1351.84 105.756 1348.3 Q107.584 1344.74 107.584 1337.63 Q107.584 1330.5 105.756 1326.96 Q103.95 1323.39 100.316 1323.39 M100.316 1319.69 Q106.126 1319.69 109.181 1324.3 Q112.26 1328.88 112.26 1337.63 Q112.26 1346.36 109.181 1350.96 Q106.126 1355.55 100.316 1355.55 Q94.5056 1355.55 91.4269 1350.96 Q88.3714 1346.36 88.3714 1337.63 Q88.3714 1328.88 91.4269 1324.3 Q94.5056 1319.69 100.316 1319.69 Z" fill="#000000" fill-rule="evenodd" fill-opacity="1" /><path clip-path="url(#clip900)" d="M120.478 1348.99 L125.362 1348.99 L125.362 1354.87 L120.478 1354.87 L120.478 1348.99 Z" fill="#000000" fill-rule="evenodd" fill-opacity="1" /><path clip-path="url(#clip900)" d="M135.593 1320.31 L153.95 1320.31 L153.95 1324.25 L139.876 1324.25 L139.876 1332.72 Q140.894 1332.37 141.913 1332.21 Q142.931 1332.03 143.95 1332.03 Q149.737 1332.03 153.116 1335.2 Q156.496 1338.37 156.496 1343.79 Q156.496 1349.36 153.024 1352.47 Q149.552 1355.55 143.232 1355.55 Q141.056 1355.55 138.788 1355.18 Q136.542 1354.8 134.135 1354.06 L134.135 1349.36 Q136.218 1350.5 138.441 1351.05 Q140.663 1351.61 143.14 1351.61 Q147.144 1351.61 149.482 1349.5 Q151.82 1347.4 151.82 1343.79 Q151.82 1340.18 149.482 1338.07 Q147.144 1335.96 143.14 1335.96 Q141.265 1335.96 139.39 1336.38 Q137.538 1336.8 135.593 1337.68 L135.593 1320.31 Z" fill="#000000" fill-rule="evenodd" fill-opacity="1" /><path clip-path="url(#clip900)" d="M99.3204 909.81 Q95.7093 909.81 93.8806 913.375 Q92.075 916.917 92.075 924.046 Q92.075 931.153 93.8806 934.718 Q95.7093 938.259 99.3204 938.259 Q102.955 938.259 104.76 934.718 Q106.589 931.153 106.589 924.046 Q106.589 916.917 104.76 913.375 Q102.955 909.81 99.3204 909.81 M99.3204 906.107 Q105.131 906.107 108.186 910.713 Q111.265 915.296 111.265 924.046 Q111.265 932.773 108.186 937.38 Q105.131 941.963 99.3204 941.963 Q93.5102 941.963 90.4315 937.38 Q87.376 932.773 87.376 924.046 Q87.376 915.296 90.4315 910.713 Q93.5102 906.107 99.3204 906.107 Z" fill="#000000" fill-rule="evenodd" fill-opacity="1" /><path clip-path="url(#clip900)" d="M119.482 935.412 L124.367 935.412 L124.367 941.292 L119.482 941.292 L119.482 935.412 Z" fill="#000000" fill-rule="evenodd" fill-opacity="1" /><path clip-path="url(#clip900)" d="M144.552 909.81 Q140.941 909.81 139.112 913.375 Q137.306 916.917 137.306 924.046 Q137.306 931.153 139.112 934.718 Q140.941 938.259 144.552 938.259 Q148.186 938.259 149.991 934.718 Q151.82 931.153 151.82 924.046 Q151.82 916.917 149.991 913.375 Q148.186 909.81 144.552 909.81 M144.552 906.107 Q150.362 906.107 153.417 910.713 Q156.496 915.296 156.496 924.046 Q156.496 932.773 153.417 937.38 Q150.362 941.963 144.552 941.963 Q138.741 941.963 135.663 937.38 Q132.607 932.773 132.607 924.046 Q132.607 915.296 135.663 910.713 Q138.741 906.107 144.552 906.107 Z" fill="#000000" fill-rule="evenodd" fill-opacity="1" /><path clip-path="url(#clip900)" d="M100.316 496.228 Q96.7047 496.228 94.876 499.793 Q93.0704 503.334 93.0704 510.464 Q93.0704 517.57 94.876 521.135 Q96.7047 524.677 100.316 524.677 Q103.95 524.677 105.756 521.135 Q107.584 517.57 107.584 510.464 Q107.584 503.334 105.756 499.793 Q103.95 496.228 100.316 496.228 M100.316 492.524 Q106.126 492.524 109.181 497.131 Q112.26 501.714 112.26 510.464 Q112.26 519.191 109.181 523.797 Q106.126 528.38 100.316 528.38 Q94.5056 528.38 91.4269 523.797 Q88.3714 519.191 88.3714 510.464 Q88.3714 501.714 91.4269 497.131 Q94.5056 492.524 100.316 492.524 Z" fill="#000000" fill-rule="evenodd" fill-opacity="1" /><path clip-path="url(#clip900)" d="M120.478 521.83 L125.362 521.83 L125.362 527.709 L120.478 527.709 L120.478 521.83 Z" fill="#000000" fill-rule="evenodd" fill-opacity="1" /><path clip-path="url(#clip900)" d="M135.593 493.149 L153.95 493.149 L153.95 497.084 L139.876 497.084 L139.876 505.557 Q140.894 505.209 141.913 505.047 Q142.931 504.862 143.95 504.862 Q149.737 504.862 153.116 508.033 Q156.496 511.205 156.496 516.621 Q156.496 522.2 153.024 525.302 Q149.552 528.38 143.232 528.38 Q141.056 528.38 138.788 528.01 Q136.542 527.64 134.135 526.899 L134.135 522.2 Q136.218 523.334 138.441 523.89 Q140.663 524.445 143.14 524.445 Q147.144 524.445 149.482 522.339 Q151.82 520.232 151.82 516.621 Q151.82 513.01 149.482 510.904 Q147.144 508.797 143.14 508.797 Q141.265 508.797 139.39 509.214 Q137.538 509.631 135.593 510.51 L135.593 493.149 Z" fill="#000000" fill-rule="evenodd" fill-opacity="1" /><path clip-path="url(#clip900)" d="M90.1306 110.192 L97.7695 110.192 L97.7695 83.8259 L89.4593 85.4926 L89.4593 81.2333 L97.7232 79.5667 L102.399 79.5667 L102.399 110.192 L110.038 110.192 L110.038 114.127 L90.1306 114.127 L90.1306 110.192 Z" fill="#000000" fill-rule="evenodd" fill-opacity="1" /><path clip-path="url(#clip900)" d="M119.482 108.247 L124.367 108.247 L124.367 114.127 L119.482 114.127 L119.482 108.247 Z" fill="#000000" fill-rule="evenodd" fill-opacity="1" /><path clip-path="url(#clip900)" d="M144.552 82.6454 Q140.941 82.6454 139.112 86.2102 Q137.306 89.7518 137.306 96.8814 Q137.306 103.988 139.112 107.553 Q140.941 111.094 144.552 111.094 Q148.186 111.094 149.991 107.553 Q151.82 103.988 151.82 96.8814 Q151.82 89.7518 149.991 86.2102 Q148.186 82.6454 144.552 82.6454 M144.552 78.9417 Q150.362 78.9417 153.417 83.5481 Q156.496 88.1314 156.496 96.8814 Q156.496 105.608 153.417 110.215 Q150.362 114.798 144.552 114.798 Q138.741 114.798 135.663 110.215 Q132.607 105.608 132.607 96.8814 Q132.607 88.1314 135.663 83.5481 Q138.741 78.9417 144.552 78.9417 Z" fill="#000000" fill-rule="evenodd" fill-opacity="1" /><path clip-path="url(#clip902)" d="M1418.79 924.012 L1455.18 871.813 L1491.54 819.822 L1527.82 768.247 L1564 717.292 L1600.03 667.162 L1635.88 618.056 L1671.51 570.169 L1706.9 523.692 L1741.99 478.812 L1776.76 435.706 L1811.18 394.546 L1845.2 355.498 L1878.8 318.715 L1911.94 284.346 L1944.59 252.526 L1976.72 223.383 L2008.29 197.033 L2039.27 173.581 L2069.63 153.12 L2099.35 135.733 L2128.38 121.487 L2156.71 110.441 L2184.31 102.638 L2211.14 98.109 L2237.18 96.8724 L2262.4 98.9331 L2286.78 104.283 L2310.3 112.9 L2332.93 124.751 L2354.65 139.787 L2375.44 157.95 L2395.27 179.167 L2414.13 203.353 L2431.99 230.411 L2448.85 260.235 L2464.68 292.704 L2479.46 327.69 L2493.19 365.053 L2505.85 404.645 L2517.43 446.306 L2527.91 489.872 L2537.28 535.169 L2545.54 582.015 L2552.68 630.225 L2558.68 679.606 L2563.55 729.962 L2567.28 781.09 L2569.86 832.789 L2571.3 884.851 L2571.59 937.07 L2570.73 989.236 L2568.72 1041.14 L2565.56 1092.58 L2561.26 1143.35 L2555.82 1193.24 L2549.25 1242.06 L2541.55 1289.61 L2532.73 1335.71 L2522.81 1380.16 L2511.78 1422.8 L2499.66 1463.44 L2486.46 1501.94 L2472.2 1538.13 L2456.89 1571.88 L2440.55 1603.04 L2423.18 1631.49 L2404.82 1657.13 L2385.47 1679.84 L2365.16 1699.54 L2343.91 1716.15 L2321.73 1729.6 L2298.65 1739.84 L2274.7 1746.83 L2249.89 1750.53 L2224.26 1750.94 L2197.82 1748.06 L2170.6 1741.89 L2142.64 1732.46 L2113.95 1719.81 L2084.57 1703.99 L2054.53 1685.05 L2023.86 1663.08 L1992.58 1638.17 L1960.72 1610.41 L1928.33 1579.91 L1895.43 1546.8 L1862.06 1511.21 L1828.24 1473.28 L1794.02 1433.15 L1759.42 1391 L1724.48 1346.98 L1689.24 1301.28 L1653.73 1254.08 L1617.98 1205.55 L1582.03 1155.91 L1545.92 1105.34 L1509.69 1054.05 L1473.36 1002.24 L1436.98 950.124 L1400.59 897.899 L1364.21 845.779 L1327.88 793.97 L1291.65 742.679 L1255.54 692.112 L1219.59 642.468 L1183.85 593.948 L1148.33 546.742 L1113.09 501.041 L1078.15 457.026 L1043.55 414.872 L1009.33 374.748 L975.513 336.814 L942.138 301.22 L909.239 268.109 L876.847 237.612 L844.996 209.852 L813.717 184.939 L783.04 162.971 L752.998 144.038 L723.619 128.213 L694.933 115.561 L666.969 106.132 L639.754 99.9628 L613.315 97.0786 L587.68 97.4908 L562.873 101.198 L538.919 108.185 L515.842 118.424 L493.666 131.874 L472.411 148.482 L452.1 168.182 L432.753 190.894 L414.388 216.529 L397.025 244.985 L380.68 276.147 L365.37 309.891 L351.11 346.084 L337.914 384.58 L325.796 425.227 L314.767 467.862 L304.839 512.315 L296.021 558.41 L288.322 605.962 L281.75 654.782 L276.312 704.675 L272.012 755.442 L268.856 806.881 L266.846 858.788 L265.984 910.954 L266.271 963.172 L267.708 1015.23 L270.291 1066.93 L274.02 1118.06 L278.889 1168.42 L284.895 1217.8 L292.031 1266.01 L300.29 1312.85 L309.665 1358.15 L320.144 1401.72 L331.719 1443.38 L344.378 1482.97 L358.107 1520.33 L372.894 1555.32 L388.724 1587.79 L405.58 1617.61 L423.446 1644.67 L442.305 1668.86 L462.136 1690.07 L482.922 1708.24 L504.64 1723.27 L527.27 1735.12 L550.788 1743.74 L575.171 1749.09 L600.396 1751.15 L626.436 1749.91 L653.266 1745.39 L680.859 1737.58 L709.188 1726.54 L738.224 1712.29 L767.938 1694.9 L798.301 1674.44 L829.283 1650.99 L860.852 1624.64 L892.978 1595.5 L925.627 1563.68 L958.768 1529.31 L992.368 1492.53 L1026.39 1453.48 L1060.81 1412.32 L1095.58 1369.21 L1130.68 1324.33 L1166.06 1277.85 L1201.69 1229.97 L1237.54 1180.86 L1273.57 1130.73 L1309.75 1079.78 L1346.04 1028.2 L1382.39 976.21 L1418.79 924.012 L1418.79 924.012 L1382.39 924.012 L1346.04 924.012 L1309.75 924.012 L1273.57 924.012 L1237.54 924.012 L1201.69 924.012 L1166.06 924.012 L1130.68 924.012 L1095.58 924.012 L1060.81 924.012 L1026.39 924.012 L992.368 924.012 L958.768 924.012 L925.627 924.012 L892.978 924.012 L860.852 924.012 L829.283 924.012 L798.301 924.012 L767.938 924.012 L738.224 924.012 L709.188 924.012 L680.859 924.012 L653.266 924.012 L626.436 924.012 L600.396 924.012 L575.171 924.012 L550.788 924.012 L527.27 924.012 L504.64 924.012 L482.922 924.012 L462.136 924.012 L442.305 924.012 L423.446 924.012 L405.58 924.012 L388.724 924.012 L372.894 924.012 L358.107 924.012 L344.378 924.012 L331.719 924.012 L320.144 924.012 L309.665 924.012 L300.29 924.012 L292.031 924.012 L284.895 924.012 L278.889 924.012 L274.02 924.012 L270.291 924.012 L267.708 924.012 L266.271 924.012 L265.984 924.012 L266.846 924.012 L268.856 924.012 L272.012 924.012 L276.312 924.012 L281.75 924.012 L288.322 924.012 L296.021 924.012 L304.839 924.012 L314.767 924.012 L325.796 924.012 L337.914 924.012 L351.11 924.012 L365.37 924.012 L380.68 924.012 L397.025 924.012 L414.388 924.012 L432.753 924.012 L452.1 924.012 L472.411 924.012 L493.666 924.012 L515.842 924.012 L538.919 924.012 L562.873 924.012 L587.68 924.012 L613.315 924.012 L639.754 924.012 L666.969 924.012 L694.933 924.012 L723.619 924.012 L752.998 924.012 L783.04 924.012 L813.717 924.012 L844.996 924.012 L876.847 924.012 L909.239 924.012 L942.138 924.012 L975.513 924.012 L1009.33 924.012 L1043.55 924.012 L1078.15 924.012 L1113.09 924.012 L1148.33 924.012 L1183.85 924.012 L1219.59 924.012 L1255.54 924.012 L1291.65 924.012 L1327.88 924.012 L1364.21 924.012 L1400.59 924.012 L1436.98 924.012 L1473.36 924.012 L1509.69 924.012 L1545.92 924.012 L1582.03 924.012 L1617.98 924.012 L1653.73 924.012 L1689.24 924.012 L1724.48 924.012 L1759.42 924.012 L1794.02 924.012 L1828.24 924.012 L1862.06 924.012 L1895.43 924.012 L1928.33 924.012 L1960.72 924.012 L1992.58 924.012 L2023.86 924.012 L2054.53 924.012 L2084.57 924.012 L2113.95 924.012 L2142.64 924.012 L2170.6 924.012 L2197.82 924.012 L2224.26 924.012 L2249.89 924.012 L2274.7 924.012 L2298.65 924.012 L2321.73 924.012 L2343.91 924.012 L2365.16 924.012 L2385.47 924.012 L2404.82 924.012 L2423.18 924.012 L2440.55 924.012 L2456.89 924.012 L2472.2 924.012 L2486.46 924.012 L2499.66 924.012 L2511.78 924.012 L2522.81 924.012 L2532.73 924.012 L2541.55 924.012 L2549.25 924.012 L2555.82 924.012 L2561.26 924.012 L2565.56 924.012 L2568.72 924.012 L2570.73 924.012 L2571.59 924.012 L2571.3 924.012 L2569.86 924.012 L2567.28 924.012 L2563.55 924.012 L2558.68 924.012 L2552.68 924.012 L2545.54 924.012 L2537.28 924.012 L2527.91 924.012 L2517.43 924.012 L2505.85 924.012 L2493.19 924.012 L2479.46 924.012 L2464.68 924.012 L2448.85 924.012 L2431.99 924.012 L2414.13 924.012 L2395.27 924.012 L2375.44 924.012 L2354.65 924.012 L2332.93 924.012 L2310.3 924.012 L2286.78 924.012 L2262.4 924.012 L2237.18 924.012 L2211.14 924.012 L2184.31 924.012 L2156.71 924.012 L2128.38 924.012 L2099.35 924.012 L2069.63 924.012 L2039.27 924.012 L2008.29 924.012 L1976.72 924.012 L1944.59 924.012 L1911.94 924.012 L1878.8 924.012 L1845.2 924.012 L1811.18 924.012 L1776.76 924.012 L1741.99 924.012 L1706.9 924.012 L1671.51 924.012 L1635.88 924.012 L1600.03 924.012 L1564 924.012 L1527.82 924.012 L1491.54 924.012 L1455.18 924.012 L1418.79 924.012  Z" fill="#e6e6fa" fill-rule="evenodd" fill-opacity="1"/>
<polyline clip-path="url(#clip902)" style="stroke:#009af9; stroke-linecap:round; stroke-linejoin:round; stroke-width:4; stroke-opacity:1; fill:none" points="1418.79,924.012 1455.18,871.813 1491.54,819.822 1527.82,768.247 1564,717.292 1600.03,667.162 1635.88,618.056 1671.51,570.169 1706.9,523.692 1741.99,478.812 1776.76,435.706 1811.18,394.546 1845.2,355.498 1878.8,318.715 1911.94,284.346 1944.59,252.526 1976.72,223.383 2008.29,197.033 2039.27,173.581 2069.63,153.12 2099.35,135.733 2128.38,121.487 2156.71,110.441 2184.31,102.638 2211.14,98.109 2237.18,96.8724 2262.4,98.9331 2286.78,104.283 2310.3,112.9 2332.93,124.751 2354.65,139.787 2375.44,157.95 2395.27,179.167 2414.13,203.353 2431.99,230.411 2448.85,260.235 2464.68,292.704 2479.46,327.69 2493.19,365.053 2505.85,404.645 2517.43,446.306 2527.91,489.872 2537.28,535.169 2545.54,582.015 2552.68,630.225 2558.68,679.606 2563.55,729.962 2567.28,781.09 2569.86,832.789 2571.3,884.851 2571.59,937.07 2570.73,989.236 2568.72,1041.14 2565.56,1092.58 2561.26,1143.35 2555.82,1193.24 2549.25,1242.06 2541.55,1289.61 2532.73,1335.71 2522.81,1380.16 2511.78,1422.8 2499.66,1463.44 2486.46,1501.94 2472.2,1538.13 2456.89,1571.88 2440.55,1603.04 2423.18,1631.49 2404.82,1657.13 2385.47,1679.84 2365.16,1699.54 2343.91,1716.15 2321.73,1729.6 2298.65,1739.84 2274.7,1746.83 2249.89,1750.53 2224.26,1750.94 2197.82,1748.06 2170.6,1741.89 2142.64,1732.46 2113.95,1719.81 2084.57,1703.99 2054.53,1685.05 2023.86,1663.08 1992.58,1638.17 1960.72,1610.41 1928.33,1579.91 1895.43,1546.8 1862.06,1511.21 1828.24,1473.28 1794.02,1433.15 1759.42,1391 1724.48,1346.98 1689.24,1301.28 1653.73,1254.08 1617.98,1205.55 1582.03,1155.91 1545.92,1105.34 1509.69,1054.05 1473.36,1002.24 1436.98,950.124 1400.59,897.899 1364.21,845.779 1327.88,793.97 1291.65,742.679 1255.54,692.112 1219.59,642.468 1183.85,593.948 1148.33,546.742 1113.09,501.041 1078.15,457.026 1043.55,414.872 1009.33,374.748 975.513,336.814 942.138,301.22 909.239,268.109 876.847,237.612 844.996,209.852 813.717,184.939 783.04,162.971 752.998,144.038 723.619,128.213 694.933,115.561 666.969,106.132 639.754,99.9628 613.315,97.0786 587.68,97.4908 562.873,101.198 538.919,108.185 515.842,118.424 493.666,131.874 472.411,148.482 452.1,168.182 432.753,190.894 414.388,216.529 397.025,244.985 380.68,276.147 365.37,309.891 351.11,346.084 337.914,384.58 325.796,425.227 314.767,467.862 304.839,512.315 296.021,558.41 288.322,605.962 281.75,654.782 276.312,704.675 272.012,755.442 268.856,806.881 266.846,858.788 265.984,910.954 266.271,963.172 267.708,1015.23 270.291,1066.93 274.02,1118.06 278.889,1168.42 284.895,1217.8 292.031,1266.01 300.29,1312.85 309.665,1358.15 320.144,1401.72 331.719,1443.38 344.378,1482.97 358.107,1520.33 372.894,1555.32 388.724,1587.79 405.58,1617.61 423.446,1644.67 442.305,1668.86 462.136,1690.07 482.922,1708.24 504.64,1723.27 527.27,1735.12 550.788,1743.74 575.171,1749.09 600.396,1751.15 626.436,1749.91 653.266,1745.39 680.859,1737.58 709.188,1726.54 738.224,1712.29 767.938,1694.9 798.301,1674.44 829.283,1650.99 860.852,1624.64 892.978,1595.5 925.627,1563.68 958.768,1529.31 992.368,1492.53 1026.39,1453.48 1060.81,1412.32 1095.58,1369.21 1130.68,1324.33 1166.06,1277.85 1201.69,1229.97 1237.54,1180.86 1273.57,1130.73 1309.75,1079.78 1346.04,1028.2 1382.39,976.21 1418.79,924.012 "/>
</svg>
